<svg 
  viewBox="344 303 336 323" 
  fill="none" 
  xmlns="http://www.w3.org/2000/svg"
>
  <style>
    {`
      @keyframes glow-pulse {
        0%, 100% { filter: brightness(1) drop-shadow(0 0 2px #d757ec); }
        50% { filter: brightness(1.2) drop-shadow(0 0 8px #d757ec); }
      }
      @keyframes flow-move {
        0% { stroke-dashoffset: 200; opacity: 0.6; }
        50% { opacity: 1; }
        100% { stroke-dashoffset: 0; opacity: 0.6; }
      }
      .animate-glow { animation: glow-pulse 4s infinite ease-in-out; }
      .animate-flow-path { 
        stroke-dasharray: 100; 
        animation: flow-move 8s infinite linear; 
      }
    `}
  </style>
  <defs>
    <linearGradient id="a" x1="483.747" x2="539.872" y1="631.769" y2="297.499" gradientUnits="userSpaceOnUse">
      <stop stop-color="#26282f"/>
      <stop offset="1" stop-color="#41464c"/>
    </linearGradient>
  </defs>
  <path fill="url(#a)" d="M448.322 303.712c6.836-.223 15.427.056 22.431.064l48.001.032 32.02-.042c15.288-.104 30.363-.744 45.362 2.79a108 108 0 0 1 44.844 22.953c44.243 37.597 39.884 82.411 39.013 134.811-.425 25.532 2.591 54.449-3.55 79.171-11.686 47.045-52.363 78.875-100.32 82.389-34.626 1.377-69.647.024-104.322.614-14.598.248-30.468-.025-44.633-3.533a109.7 109.7 0 0 1-45.776-24.052c-24.127-21.139-37.258-50.133-37.337-82.093-.038-15.384.009-30.78.013-46.163l.002-35.346c-.027-16.775-.516-33.043 3.58-49.463a106.77 106.77 0 0 1 24.129-45.454c20.404-22.997 46.073-34.946 76.543-36.678"/>
  <path class="animate-glow" fill="#d757ec" d="M579.798 338.211c14.894-1.569 32.082 5.373 43.595 14.581a68.8 68.8 0 0 1 24.872 45.404c4.293 40.486-21.635 57.492-48.308 81.142L547.2 526.43l-36.887 33.392c-21.395 19.69-29.878 30.906-60.192 34.055a64.86 64.86 0 0 1-46.025-15.199 65.63 65.63 0 0 1-22.842-45.254c-2.994-39.364 21.365-56.082 47.461-79.418l52.139-46.803a4251 4251 0 0 0 37.016-33.749c20.909-19.333 31.654-32.91 61.928-35.243"/>
  <path fill="#2f2b45" d="M577.326 346.178c28.337-3.853 57.08 19.78 62.267 47.417a61.32 61.32 0 0 1-9.522 46.06c-6.559 9.469-25.111 24.515-34.386 32.82l-61.87 55.377-32.733 29.755c-17.076 15.516-24.023 24.066-47.569 28.316-33.304 1.937-58.388-16.245-64.246-49.853-2.488-14.274 2.004-33.278 11.215-44.335 8.536-10.247 21.44-21.087 31.507-30.141l58.888-52.747 33.056-30.222c17.923-16.658 27.815-28.939 53.393-32.447"/>
  <path fill="#38dded" d="M574.893 363.09c24.758-2.497 46.842 15.575 49.294 40.338s-15.662 46.813-40.429 49.219c-24.703 2.4-46.684-15.656-49.129-40.354-2.444-24.698 15.57-46.713 40.264-49.203"/>
  <path class="animate-flow-path" fill="#d757ec" d="M511.313 430.694c7.303-1.334 15.083 5.747 14.16 11.861-4.044 26.804-38.1-.569-37.931 35.217 10.499.357 21.161-.778 31.706-1.072 7.161-.2 18.146-1.911 24.217 2.811 5.11 3.782 5.559 13.509 1.087 17.826-5.724 5.525-20.084 4.5-27.599 4.681q-15.173.35-30.336.919c-.04 9.368.21 18.084-1 27.426-1.308 12.216-8.705 20.081-18.29 27.058-7.061 5.148-18.843 11.31-24.82 1.34-3.426-5.715-2.349-11.529 2.493-15.931 3.982-3.62 9.299-5.38 12.588-9.987 1.946-2.725 2.408-5.167 3.251-8.342 2.841-2.303 4.776-2.849 8.152-4.022-1.457 9.719-4.248 20.712-14.177 24.431-7.337 2.748-9.076 11.445-3.539 11.85 8.084.592 23.844-14.722 25.735-22.69 2.663-11.225 2.046-26.077 2.089-38.067 10.326-1.471 28.832-1.407 39.736-1.58 5.244-.13 18.662 1.016 20.686-4.658-.058-2.62-1.262-5.581-4.304-5.67-18.653-.543-37.064 1.657-55.769 1.376-.116-5.765-.287-11.671.899-17.343 5.392-25.805 28.352-13.708 35.485-21.942.99-1.143 1.721-2.67 1.409-4.217-.292-1.446-1.334-2.594-2.637-3.227-4-1.941-17.895 1.545-22.303 2.894-33.362 10.208-15.04 44.708-27.571 67.754-3.899 7.169-9.808 11.346-17.508 13.645-3.602 1.075-7.042 1.119-10.773 1.211-1.973 3.879-3.567 6.981-7.109 9.78-10.69 8.088-24.559-3.136-22.478-15.469 1.931-11.443 15.344-14.554 23.436-7.307 2.022 1.812 3.232 3.537 4.818 5.761 1.879-.247 5.109-.471 6.844-.784 33.951-6.134 10.761-48.24 28.099-68.937 10.674-12.743 26.293-14.676 41.254-16.596"/>
  <path fill="#2f2b45" d="M419.846 514.811a7.066 7.066 0 1 1 2.416 13.922 7.065 7.065 0 0 1-7.97-5.787 7.067 7.067 0 0 1 5.554-8.135"/>
</svg>
